<mxfile host="app.diagrams.net" agent="Mozilla/5.0 (Macintosh; Intel Mac OS X 10_15_7) AppleWebKit/605.1.15 (KHTML, like Gecko) Version/17.5 Safari/605.1.15" version="24.7.7">
  <diagram name="Page-1" id="fjYVE_MCzw13ks9kUYx-">
    <mxGraphModel dx="1738" dy="1027" grid="1" gridSize="10" guides="1" tooltips="1" connect="1" arrows="1" fold="1" page="1" pageScale="1" pageWidth="827" pageHeight="1169" background="#333333" math="0" shadow="0">
      <root>
        <mxCell id="0" />
        <mxCell id="1" parent="0" />
        <mxCell id="1dXbr0KGEEn8-QISHsFf-4" value="" style="group;labelBackgroundColor=none;fontColor=none;noLabel=1;" vertex="1" connectable="0" parent="1">
          <mxGeometry x="20" width="1200" height="870.4198715203427" as="geometry" />
        </mxCell>
        <mxCell id="G0WD6zUPppNHZx1Gu2Fa-94" value="" style="group" parent="1dXbr0KGEEn8-QISHsFf-4" vertex="1" connectable="0">
          <mxGeometry x="237.6237623762376" y="25.008565310492507" width="843.5662376237624" height="845.4113062098502" as="geometry" />
        </mxCell>
        <mxCell id="G0WD6zUPppNHZx1Gu2Fa-42" style="edgeStyle=orthogonalEdgeStyle;rounded=0;orthogonalLoop=1;jettySize=auto;html=1;exitX=0.5;exitY=1;exitDx=0;exitDy=0;" parent="G0WD6zUPppNHZx1Gu2Fa-94" edge="1">
          <mxGeometry relative="1" as="geometry">
            <mxPoint x="643.3965430441349" as="sourcePoint" />
            <mxPoint x="643.3965430441349" as="targetPoint" />
          </mxGeometry>
        </mxCell>
        <mxCell id="G0WD6zUPppNHZx1Gu2Fa-48" value="16@128x128" style="points=[[0,0,0,0,5],[0,0.5,0,0,0],[0,1,0,0,-5],[0.5,1,0,0,0],[1,0,0,0,5],[1,0.5,0,0,0],[1,1,0,0,-5]];perimeter=orthogonalPerimeter;outlineConnect=0;targetShapes=umlLifeline;portConstraint=eastwest;newEdgeStyle={&quot;curved&quot;:0,&quot;rounded&quot;:0};labelPosition=center;verticalLabelPosition=top;align=center;verticalAlign=bottom;fillColor=#00DB00;fontColor=#ffffff;strokeColor=#005700;fontStyle=1" parent="G0WD6zUPppNHZx1Gu2Fa-94" vertex="1">
          <mxGeometry x="100.0839066957543" width="14.297700956536328" height="120.3620790344559" as="geometry" />
        </mxCell>
        <mxCell id="G0WD6zUPppNHZx1Gu2Fa-50" value="32@64x64" style="points=[[0,0,0,0,5],[0,0.5,0,0,0],[0,1,0,0,-5],[0.5,0,0,0,0],[0.5,1,0,0,0],[1,0,0,0,5],[1,0.5,0,0,0],[1,1,0,0,-5]];perimeter=orthogonalPerimeter;outlineConnect=0;targetShapes=umlLifeline;portConstraint=eastwest;newEdgeStyle={&quot;curved&quot;:0,&quot;rounded&quot;:0};labelPosition=center;verticalLabelPosition=top;align=center;verticalAlign=bottom;fillColor=#00DB00;fontColor=#ffffff;strokeColor=#005700;fontStyle=1" parent="G0WD6zUPppNHZx1Gu2Fa-94" vertex="1">
          <mxGeometry x="185.87011243497227" y="180.54311855168385" width="14.297700956536328" height="120.3620790344559" as="geometry" />
        </mxCell>
        <mxCell id="G0WD6zUPppNHZx1Gu2Fa-52" value="64@32x32" style="points=[[0,0,0,0,5],[0,0.5,0,0,0],[0,1,0,0,-5],[0.5,0,0,0,0],[0.5,1,0,0,0],[1,0,0,0,5],[1,0.5,0,0,0],[1,1,0,0,-5]];perimeter=orthogonalPerimeter;outlineConnect=0;targetShapes=umlLifeline;portConstraint=eastwest;newEdgeStyle={&quot;curved&quot;:0,&quot;rounded&quot;:0};labelPosition=center;verticalLabelPosition=top;align=center;verticalAlign=bottom;fillColor=#00DB00;fontColor=#ffffff;strokeColor=#005700;fontStyle=1" parent="G0WD6zUPppNHZx1Gu2Fa-94" vertex="1">
          <mxGeometry x="271.65631817419023" y="361.0862371033677" width="14.297700956536328" height="120.3620790344559" as="geometry" />
        </mxCell>
        <mxCell id="G0WD6zUPppNHZx1Gu2Fa-62" style="edgeStyle=orthogonalEdgeStyle;rounded=0;orthogonalLoop=1;jettySize=auto;html=1;curved=0;exitX=1;exitY=0;exitDx=0;exitDy=5;exitPerimeter=0;fillColor=#1ba1e2;strokeColor=#8FBDFF;strokeWidth=2;entryX=0;entryY=0;entryDx=0;entryDy=5;entryPerimeter=0;" parent="G0WD6zUPppNHZx1Gu2Fa-94" source="G0WD6zUPppNHZx1Gu2Fa-48" edge="1" target="G0WD6zUPppNHZx1Gu2Fa-73">
          <mxGeometry relative="1" as="geometry">
            <mxPoint x="722.3762376237623" y="7.355460385438972" as="targetPoint" />
          </mxGeometry>
        </mxCell>
        <mxCell id="G0WD6zUPppNHZx1Gu2Fa-63" style="edgeStyle=orthogonalEdgeStyle;rounded=0;orthogonalLoop=1;jettySize=auto;html=1;curved=0;exitX=1;exitY=0;exitDx=0;exitDy=5;exitPerimeter=0;entryX=0;entryY=0;entryDx=0;entryDy=5;entryPerimeter=0;fillColor=#1ba1e2;strokeColor=#8FBDFF;strokeWidth=2;" parent="G0WD6zUPppNHZx1Gu2Fa-94" source="G0WD6zUPppNHZx1Gu2Fa-50" edge="1" target="G0WD6zUPppNHZx1Gu2Fa-75">
          <mxGeometry relative="1" as="geometry">
            <mxPoint x="629.0988420875984" y="188.06574849133736" as="targetPoint" />
          </mxGeometry>
        </mxCell>
        <mxCell id="G0WD6zUPppNHZx1Gu2Fa-65" style="edgeStyle=orthogonalEdgeStyle;rounded=0;orthogonalLoop=1;jettySize=auto;html=1;curved=0;exitX=1;exitY=0;exitDx=0;exitDy=5;exitPerimeter=0;entryX=0;entryY=0;entryDx=0;entryDy=5;entryPerimeter=0;fillColor=#1ba1e2;strokeColor=#8FBDFF;strokeWidth=2;" parent="G0WD6zUPppNHZx1Gu2Fa-94" source="G0WD6zUPppNHZx1Gu2Fa-52" edge="1" target="G0WD6zUPppNHZx1Gu2Fa-78">
          <mxGeometry relative="1" as="geometry">
            <mxPoint x="550.4614868266488" y="368.60886704302123" as="targetPoint" />
          </mxGeometry>
        </mxCell>
        <mxCell id="G0WD6zUPppNHZx1Gu2Fa-46" value="1@128x128" style="points=[[0,0,0,0,5],[0,0.5,0,0,0],[0,1,0,0,-5],[1,0,0,0,5],[1,0.5,0,0,0],[1,1,0,0,-5]];perimeter=orthogonalPerimeter;outlineConnect=0;targetShapes=umlLifeline;portConstraint=eastwest;newEdgeStyle={&quot;curved&quot;:0,&quot;rounded&quot;:0};labelPosition=center;verticalLabelPosition=top;align=center;verticalAlign=bottom;imageHeight=24;glass=0;strokeColor=#005700;fillColor=#008a00;fontColor=#ffffff;fontStyle=1" parent="G0WD6zUPppNHZx1Gu2Fa-94" vertex="1">
          <mxGeometry width="14.297700956536328" height="120.3620790344559" as="geometry" />
        </mxCell>
        <mxCell id="G0WD6zUPppNHZx1Gu2Fa-70" style="edgeStyle=orthogonalEdgeStyle;rounded=0;orthogonalLoop=1;jettySize=auto;html=1;curved=0;exitX=1;exitY=0.5;exitDx=0;exitDy=0;exitPerimeter=0;entryX=0;entryY=0.5;entryDx=0;entryDy=0;entryPerimeter=0;fillColor=#fa6800;strokeColor=#FF4400;strokeWidth=3;" parent="G0WD6zUPppNHZx1Gu2Fa-94" source="G0WD6zUPppNHZx1Gu2Fa-46" target="G0WD6zUPppNHZx1Gu2Fa-48" edge="1">
          <mxGeometry relative="1" as="geometry" />
        </mxCell>
        <mxCell id="G0WD6zUPppNHZx1Gu2Fa-71" style="edgeStyle=orthogonalEdgeStyle;rounded=0;orthogonalLoop=1;jettySize=auto;html=1;curved=0;exitX=0.5;exitY=1;exitDx=0;exitDy=0;exitPerimeter=0;entryX=0.5;entryY=0;entryDx=0;entryDy=0;entryPerimeter=0;fillColor=#d5e8d4;gradientColor=#97d077;strokeColor=#FF8000;strokeWidth=3;" parent="G0WD6zUPppNHZx1Gu2Fa-94" source="G0WD6zUPppNHZx1Gu2Fa-48" target="G0WD6zUPppNHZx1Gu2Fa-49" edge="1">
          <mxGeometry relative="1" as="geometry" />
        </mxCell>
        <mxCell id="G0WD6zUPppNHZx1Gu2Fa-73" value="16@128x128" style="points=[[0,0,0,0,5],[0,0.5,0,0,0],[0,1,0,0,-5],[0.5,1,0,0,0],[1,0,0,0,5],[1,0.5,0,0,0],[1,1,0,0,-5]];perimeter=orthogonalPerimeter;outlineConnect=0;targetShapes=umlLifeline;portConstraint=eastwest;newEdgeStyle={&quot;curved&quot;:0,&quot;rounded&quot;:0};labelPosition=center;verticalLabelPosition=top;align=center;verticalAlign=bottom;fillColor=#00DB00;fontColor=#ffffff;strokeColor=#005700;fontStyle=1" parent="G0WD6zUPppNHZx1Gu2Fa-94" vertex="1">
          <mxGeometry x="627.2933042456787" width="14.297700956536328" height="120.3620790344559" as="geometry" />
        </mxCell>
        <mxCell id="G0WD6zUPppNHZx1Gu2Fa-74" value="1@128x128" style="points=[[0,0,0,0,5],[0,0.5,0,0,0],[0,1,0,0,-5],[1,0,0,0,5],[1,0.5,0,0,0],[1,1,0,0,-5]];perimeter=orthogonalPerimeter;outlineConnect=0;targetShapes=umlLifeline;portConstraint=eastwest;newEdgeStyle={&quot;curved&quot;:0,&quot;rounded&quot;:0};labelPosition=center;verticalLabelPosition=top;align=center;verticalAlign=bottom;imageHeight=24;glass=0;strokeColor=#005700;fillColor=#00DB00;fontColor=#ffffff;" parent="G0WD6zUPppNHZx1Gu2Fa-94" vertex="1">
          <mxGeometry x="736.6290317167309" width="14.297700956536328" height="120.3620790344559" as="geometry" />
        </mxCell>
        <mxCell id="G0WD6zUPppNHZx1Gu2Fa-75" value="32@64x64" style="points=[[0,0,0,0,5],[0,0.5,0,0,0],[0,1,0,0,-5],[0.5,0,0,0,0],[0.5,1,0,0,0],[1,0,0,0,5],[1,0.5,0,0,0],[1,1,0,0,-5]];perimeter=orthogonalPerimeter;outlineConnect=0;targetShapes=umlLifeline;portConstraint=eastwest;newEdgeStyle={&quot;curved&quot;:0,&quot;rounded&quot;:0};labelPosition=center;verticalLabelPosition=top;align=center;verticalAlign=bottom;fillColor=#00DB00;fontColor=#ffffff;strokeColor=#005700;fontStyle=1" parent="G0WD6zUPppNHZx1Gu2Fa-94" vertex="1">
          <mxGeometry x="544.1245846618559" y="180.54311855168385" width="14.297700956536328" height="120.3620790344559" as="geometry" />
        </mxCell>
        <mxCell id="G0WD6zUPppNHZx1Gu2Fa-78" value="64@32x32" style="points=[[0,0,0,0,5],[0,0.5,0,0,0],[0,1,0,0,-5],[0.5,0,0,0,0],[0.5,1,0,0,0],[1,0,0,0,5],[1,0.5,0,0,0],[1,1,0,0,-5]];perimeter=orthogonalPerimeter;outlineConnect=0;targetShapes=umlLifeline;portConstraint=eastwest;newEdgeStyle={&quot;curved&quot;:0,&quot;rounded&quot;:0};labelPosition=center;verticalLabelPosition=top;align=center;verticalAlign=bottom;fillColor=#00DB00;fontColor=#ffffff;strokeColor=#005700;fontStyle=1" parent="G0WD6zUPppNHZx1Gu2Fa-94" vertex="1">
          <mxGeometry x="463.36049672763886" y="361.0862371033677" width="14.297700956536328" height="120.3620790344559" as="geometry" />
        </mxCell>
        <mxCell id="G0WD6zUPppNHZx1Gu2Fa-80" value="128@16x16" style="points=[[0,0,0,0,5],[0,0.5,0,0,0],[0,1,0,0,-5],[0.5,0,0,0,0],[0.5,1,0,0,0],[1,0,0,0,5],[1,0.5,0,0,0],[1,1,0,0,-5]];perimeter=orthogonalPerimeter;outlineConnect=0;targetShapes=umlLifeline;portConstraint=eastwest;newEdgeStyle={&quot;curved&quot;:0,&quot;rounded&quot;:0};labelPosition=center;verticalLabelPosition=top;align=center;verticalAlign=bottom;fillColor=#00DB00;fontColor=#ffffff;strokeColor=#005700;fontStyle=1" parent="G0WD6zUPppNHZx1Gu2Fa-94" vertex="1">
          <mxGeometry x="463.36049672763886" y="541.6293556550515" width="14.297700956536328" height="120.3620790344559" as="geometry" />
        </mxCell>
        <mxCell id="G0WD6zUPppNHZx1Gu2Fa-81" style="edgeStyle=orthogonalEdgeStyle;rounded=0;orthogonalLoop=1;jettySize=auto;html=1;curved=0;exitX=1;exitY=0.5;exitDx=0;exitDy=0;exitPerimeter=0;entryX=0;entryY=0.5;entryDx=0;entryDy=0;entryPerimeter=0;fillColor=#fa6800;strokeColor=#FF4400;strokeWidth=3;" parent="G0WD6zUPppNHZx1Gu2Fa-94" source="G0WD6zUPppNHZx1Gu2Fa-49" target="G0WD6zUPppNHZx1Gu2Fa-50" edge="1">
          <mxGeometry relative="1" as="geometry" />
        </mxCell>
        <mxCell id="G0WD6zUPppNHZx1Gu2Fa-82" style="edgeStyle=orthogonalEdgeStyle;rounded=0;orthogonalLoop=1;jettySize=auto;html=1;curved=0;exitX=0.5;exitY=1;exitDx=0;exitDy=0;exitPerimeter=0;entryX=0.5;entryY=0;entryDx=0;entryDy=0;entryPerimeter=0;fillColor=#d5e8d4;gradientColor=#97d077;strokeColor=#FF8000;strokeWidth=3;" parent="G0WD6zUPppNHZx1Gu2Fa-94" source="G0WD6zUPppNHZx1Gu2Fa-50" target="G0WD6zUPppNHZx1Gu2Fa-76" edge="1">
          <mxGeometry relative="1" as="geometry" />
        </mxCell>
        <mxCell id="G0WD6zUPppNHZx1Gu2Fa-83" style="edgeStyle=orthogonalEdgeStyle;rounded=0;orthogonalLoop=1;jettySize=auto;html=1;curved=0;exitX=1;exitY=0.5;exitDx=0;exitDy=0;exitPerimeter=0;entryX=0;entryY=0.5;entryDx=0;entryDy=0;entryPerimeter=0;fillColor=#fa6800;strokeColor=#FF4400;strokeWidth=3;" parent="G0WD6zUPppNHZx1Gu2Fa-94" source="G0WD6zUPppNHZx1Gu2Fa-76" target="G0WD6zUPppNHZx1Gu2Fa-52" edge="1">
          <mxGeometry relative="1" as="geometry" />
        </mxCell>
        <mxCell id="G0WD6zUPppNHZx1Gu2Fa-84" style="edgeStyle=orthogonalEdgeStyle;rounded=0;orthogonalLoop=1;jettySize=auto;html=1;curved=0;exitX=0.5;exitY=1;exitDx=0;exitDy=0;exitPerimeter=0;entryX=0.5;entryY=0;entryDx=0;entryDy=0;entryPerimeter=0;fillColor=#d5e8d4;gradientColor=#97d077;strokeColor=#FF8000;strokeWidth=3;" parent="G0WD6zUPppNHZx1Gu2Fa-94" source="G0WD6zUPppNHZx1Gu2Fa-52" target="G0WD6zUPppNHZx1Gu2Fa-53" edge="1">
          <mxGeometry relative="1" as="geometry" />
        </mxCell>
        <mxCell id="G0WD6zUPppNHZx1Gu2Fa-85" style="edgeStyle=orthogonalEdgeStyle;rounded=0;orthogonalLoop=1;jettySize=auto;html=1;curved=0;exitX=1;exitY=0.5;exitDx=0;exitDy=0;exitPerimeter=0;entryX=0;entryY=0.5;entryDx=0;entryDy=0;entryPerimeter=0;fillColor=#6a00ff;strokeColor=#CC99FF;strokeWidth=5;" parent="G0WD6zUPppNHZx1Gu2Fa-94" source="G0WD6zUPppNHZx1Gu2Fa-53" target="G0WD6zUPppNHZx1Gu2Fa-80" edge="1">
          <mxGeometry relative="1" as="geometry">
            <mxPoint x="357.44252391340837" y="601.8103951722798" as="targetPoint" />
          </mxGeometry>
        </mxCell>
        <mxCell id="G0WD6zUPppNHZx1Gu2Fa-88" style="edgeStyle=orthogonalEdgeStyle;rounded=0;orthogonalLoop=1;jettySize=auto;html=1;curved=0;exitX=0.5;exitY=0;exitDx=0;exitDy=0;exitPerimeter=0;entryX=0.5;entryY=1;entryDx=0;entryDy=0;entryPerimeter=0;fillColor=#e6d0de;gradientColor=#d5739d;strokeColor=#FF33FF;strokeWidth=3;" parent="G0WD6zUPppNHZx1Gu2Fa-94" source="G0WD6zUPppNHZx1Gu2Fa-80" target="G0WD6zUPppNHZx1Gu2Fa-78" edge="1">
          <mxGeometry relative="1" as="geometry" />
        </mxCell>
        <mxCell id="G0WD6zUPppNHZx1Gu2Fa-89" style="edgeStyle=orthogonalEdgeStyle;rounded=0;orthogonalLoop=1;jettySize=auto;html=1;curved=0;exitX=1;exitY=0.5;exitDx=0;exitDy=0;exitPerimeter=0;entryX=0;entryY=0.5;entryDx=0;entryDy=0;entryPerimeter=0;fillColor=#ffcd28;gradientColor=#ffa500;strokeColor=#FF4400;strokeWidth=3;" parent="G0WD6zUPppNHZx1Gu2Fa-94" source="G0WD6zUPppNHZx1Gu2Fa-78" target="G0WD6zUPppNHZx1Gu2Fa-77" edge="1">
          <mxGeometry relative="1" as="geometry" />
        </mxCell>
        <mxCell id="G0WD6zUPppNHZx1Gu2Fa-90" style="edgeStyle=orthogonalEdgeStyle;rounded=0;orthogonalLoop=1;jettySize=auto;html=1;curved=0;exitX=0.5;exitY=0;exitDx=0;exitDy=0;exitPerimeter=0;entryX=0.5;entryY=1;entryDx=0;entryDy=0;entryPerimeter=0;fillColor=#e6d0de;gradientColor=#d5739d;strokeColor=#FF33FF;strokeWidth=3;" parent="G0WD6zUPppNHZx1Gu2Fa-94" source="G0WD6zUPppNHZx1Gu2Fa-77" target="G0WD6zUPppNHZx1Gu2Fa-75" edge="1">
          <mxGeometry relative="1" as="geometry" />
        </mxCell>
        <mxCell id="G0WD6zUPppNHZx1Gu2Fa-91" style="edgeStyle=orthogonalEdgeStyle;rounded=0;orthogonalLoop=1;jettySize=auto;html=1;curved=0;exitX=1;exitY=0.5;exitDx=0;exitDy=0;exitPerimeter=0;entryX=0;entryY=0.5;entryDx=0;entryDy=0;entryPerimeter=0;fillColor=#ffcd28;gradientColor=#ffa500;strokeColor=#FF4400;strokeWidth=3;" parent="G0WD6zUPppNHZx1Gu2Fa-94" source="G0WD6zUPppNHZx1Gu2Fa-75" target="G0WD6zUPppNHZx1Gu2Fa-72" edge="1">
          <mxGeometry relative="1" as="geometry" />
        </mxCell>
        <mxCell id="G0WD6zUPppNHZx1Gu2Fa-92" style="edgeStyle=orthogonalEdgeStyle;rounded=0;orthogonalLoop=1;jettySize=auto;html=1;curved=0;exitX=0.5;exitY=0;exitDx=0;exitDy=0;exitPerimeter=0;entryX=0.5;entryY=1;entryDx=0;entryDy=0;entryPerimeter=0;fillColor=#e6d0de;gradientColor=#d5739d;strokeColor=#FF33FF;strokeWidth=3;" parent="G0WD6zUPppNHZx1Gu2Fa-94" source="G0WD6zUPppNHZx1Gu2Fa-72" target="G0WD6zUPppNHZx1Gu2Fa-73" edge="1">
          <mxGeometry relative="1" as="geometry" />
        </mxCell>
        <mxCell id="G0WD6zUPppNHZx1Gu2Fa-93" style="edgeStyle=orthogonalEdgeStyle;rounded=0;orthogonalLoop=1;jettySize=auto;html=1;curved=0;exitX=1;exitY=0.5;exitDx=0;exitDy=0;exitPerimeter=0;entryX=0;entryY=0.5;entryDx=0;entryDy=0;entryPerimeter=0;fillColor=#ffcd28;gradientColor=#ffa500;strokeColor=#FF4400;strokeWidth=3;" parent="G0WD6zUPppNHZx1Gu2Fa-94" source="G0WD6zUPppNHZx1Gu2Fa-73" target="G0WD6zUPppNHZx1Gu2Fa-74" edge="1">
          <mxGeometry relative="1" as="geometry" />
        </mxCell>
        <mxCell id="G0WD6zUPppNHZx1Gu2Fa-53" value="64@16x16" style="points=[[0,0,0,0,5],[0,0.5,0,0,0],[0,1,0,0,-5],[0.5,0,0,0,0],[0.5,1,0,0,0],[1,0,0,0,5],[1,0.5,0,0,0],[1,1,0,0,-5]];perimeter=orthogonalPerimeter;outlineConnect=0;targetShapes=umlLifeline;portConstraint=eastwest;newEdgeStyle={&quot;curved&quot;:0,&quot;rounded&quot;:0};labelPosition=center;verticalLabelPosition=top;align=center;verticalAlign=bottom;fillColor=#00DB00;fontColor=#ffffff;strokeColor=#005700;fontStyle=1" parent="G0WD6zUPppNHZx1Gu2Fa-94" vertex="1">
          <mxGeometry x="271.65631817419023" y="541.6293556550515" width="14.297700956536328" height="120.3620790344559" as="geometry" />
        </mxCell>
        <mxCell id="G0WD6zUPppNHZx1Gu2Fa-77" value="32@32x32" style="points=[[0,0,0,0,5],[0,0.5,0,0,0],[0,1,0,0,-5],[0.5,0,0,0,0],[0.5,1,0,0,0],[1,0,0,0,5],[1,0.5,0,0,0],[1,1,0,0,-5]];perimeter=orthogonalPerimeter;outlineConnect=0;targetShapes=umlLifeline;portConstraint=eastwest;newEdgeStyle={&quot;curved&quot;:0,&quot;rounded&quot;:0};labelPosition=center;verticalLabelPosition=top;align=center;verticalAlign=bottom;fillColor=#00DB00;fontColor=#ffffff;strokeColor=#005700;fontStyle=1" parent="G0WD6zUPppNHZx1Gu2Fa-94" vertex="1">
          <mxGeometry x="544.1245846618559" y="361.0862371033677" width="14.297700956536328" height="120.3620790344559" as="geometry" />
        </mxCell>
        <mxCell id="G0WD6zUPppNHZx1Gu2Fa-49" value="16@64x64" style="points=[[0,0,0,0,5],[0,0.5,0,0,0],[0,1,0,0,-5],[0.5,0,0,0,0],[0.5,1,0,0,0],[1,0,0,0,5],[1,0.5,0,0,0],[1,1,0,0,-5]];perimeter=orthogonalPerimeter;outlineConnect=0;targetShapes=umlLifeline;portConstraint=eastwest;newEdgeStyle={&quot;curved&quot;:0,&quot;rounded&quot;:0};labelPosition=center;verticalLabelPosition=top;align=center;verticalAlign=bottom;fillColor=#00DB00;fontColor=#ffffff;strokeColor=#005700;fontStyle=1" parent="G0WD6zUPppNHZx1Gu2Fa-94" vertex="1">
          <mxGeometry x="100.0839066957543" y="180.54311855168385" width="14.297700956536328" height="120.3620790344559" as="geometry" />
        </mxCell>
        <mxCell id="G0WD6zUPppNHZx1Gu2Fa-72" value="16@64x64" style="points=[[0,0,0,0,5],[0,0.5,0,0,0],[0,1,0,0,-5],[0.5,0,0,0,0],[0.5,1,0,0,0],[1,0,0,0,5],[1,0.5,0,0,0],[1,1,0,0,-5]];perimeter=orthogonalPerimeter;outlineConnect=0;targetShapes=umlLifeline;portConstraint=eastwest;newEdgeStyle={&quot;curved&quot;:0,&quot;rounded&quot;:0};labelPosition=center;verticalLabelPosition=top;align=center;verticalAlign=bottom;fillColor=#00DB00;fontColor=#ffffff;strokeColor=#005700;fontStyle=1" parent="G0WD6zUPppNHZx1Gu2Fa-94" vertex="1">
          <mxGeometry x="627.2933042456787" y="180.54311855168385" width="14.297700956536328" height="120.3620790344559" as="geometry" />
        </mxCell>
        <mxCell id="G0WD6zUPppNHZx1Gu2Fa-76" value="32@32x32" style="points=[[0,0,0,0,5],[0,0.5,0,0,0],[0,1,0,0,-5],[0.5,0,0,0,0],[0.5,1,0,0,0],[1,0,0,0,5],[1,0.5,0,0,0],[1,1,0,0,-5]];perimeter=orthogonalPerimeter;outlineConnect=0;targetShapes=umlLifeline;portConstraint=eastwest;newEdgeStyle={&quot;curved&quot;:0,&quot;rounded&quot;:0};labelPosition=center;verticalLabelPosition=top;align=center;verticalAlign=bottom;fillColor=#00DB00;fontColor=#ffffff;strokeColor=#005700;glass=0;rounded=0;fontStyle=1" parent="G0WD6zUPppNHZx1Gu2Fa-94" vertex="1">
          <mxGeometry x="185.87011243497227" y="361.0862371033677" width="14.297700956536328" height="120.3620790344559" as="geometry" />
        </mxCell>
        <mxCell id="1dXbr0KGEEn8-QISHsFf-24" value="" style="group" vertex="1" connectable="0" parent="G0WD6zUPppNHZx1Gu2Fa-94">
          <mxGeometry x="700.9919801980197" y="454.99241970021416" width="142.57425742574264" height="390.418886509636" as="geometry" />
        </mxCell>
        <mxCell id="0nggnoeJpOFIupsntiaY-4" value="" style="group" parent="1dXbr0KGEEn8-QISHsFf-24" vertex="1" connectable="0">
          <mxGeometry y="52.06770877944325" width="142.57425742574256" height="338.3511777301927" as="geometry" />
        </mxCell>
        <mxCell id="G0WD6zUPppNHZx1Gu2Fa-34" style="edgeStyle=orthogonalEdgeStyle;rounded=0;orthogonalLoop=1;jettySize=auto;html=1;exitX=0.5;exitY=1;exitDx=0;exitDy=0;entryX=0.5;entryY=0;entryDx=0;entryDy=0;strokeColor=#FFFFFF;" parent="0nggnoeJpOFIupsntiaY-4" source="G0WD6zUPppNHZx1Gu2Fa-35" target="G0WD6zUPppNHZx1Gu2Fa-37" edge="1">
          <mxGeometry relative="1" as="geometry" />
        </mxCell>
        <mxCell id="G0WD6zUPppNHZx1Gu2Fa-35" value="ConvBlock" style="rounded=1;whiteSpace=wrap;html=1;fillColor=#1ba1e2;fontColor=#ffffff;strokeColor=#006EAF;" parent="0nggnoeJpOFIupsntiaY-4" vertex="1">
          <mxGeometry width="142.57425742574256" height="88.26552462526766" as="geometry" />
        </mxCell>
        <mxCell id="G0WD6zUPppNHZx1Gu2Fa-36" style="edgeStyle=orthogonalEdgeStyle;rounded=0;orthogonalLoop=1;jettySize=auto;html=1;exitX=0.5;exitY=1;exitDx=0;exitDy=0;entryX=0.5;entryY=0;entryDx=0;entryDy=0;strokeColor=#FFFFFF;" parent="0nggnoeJpOFIupsntiaY-4" source="G0WD6zUPppNHZx1Gu2Fa-37" target="G0WD6zUPppNHZx1Gu2Fa-39" edge="1">
          <mxGeometry relative="1" as="geometry" />
        </mxCell>
        <mxCell id="G0WD6zUPppNHZx1Gu2Fa-37" value="Multi head attention" style="rounded=1;whiteSpace=wrap;html=1;fillColor=#1ba1e2;fontColor=#ffffff;strokeColor=#006EAF;" parent="0nggnoeJpOFIupsntiaY-4" vertex="1">
          <mxGeometry y="125.04282655246253" width="142.57425742574256" height="88.26552462526766" as="geometry" />
        </mxCell>
        <mxCell id="G0WD6zUPppNHZx1Gu2Fa-39" value="1x1 Convolution" style="rounded=1;whiteSpace=wrap;html=1;fillColor=#1ba1e2;fontColor=#ffffff;strokeColor=#006EAF;" parent="0nggnoeJpOFIupsntiaY-4" vertex="1">
          <mxGeometry y="250.08565310492506" width="142.57425742574256" height="88.26552462526766" as="geometry" />
        </mxCell>
        <mxCell id="1dXbr0KGEEn8-QISHsFf-3" value="&lt;font style=&quot;font-size: 16px;&quot; color=&quot;#ffffff&quot;&gt;&lt;b&gt;Bottleneck&lt;/b&gt;&lt;/font&gt;" style="text;html=1;align=center;verticalAlign=middle;resizable=0;points=[];autosize=1;" vertex="1" parent="1dXbr0KGEEn8-QISHsFf-24">
          <mxGeometry x="16.291188118811988" width="110" height="30" as="geometry" />
        </mxCell>
        <mxCell id="1dXbr0KGEEn8-QISHsFf-27" style="edgeStyle=orthogonalEdgeStyle;rounded=0;orthogonalLoop=1;jettySize=auto;html=1;curved=0;exitX=1;exitY=0.5;exitDx=0;exitDy=0;exitPerimeter=0;strokeWidth=4;fillColor=#f5f5f5;strokeColor=#FFFFFF;" edge="1" parent="G0WD6zUPppNHZx1Gu2Fa-94">
          <mxGeometry relative="1" as="geometry">
            <mxPoint x="750.9262376237623" y="59.4714346895075" as="sourcePoint" />
            <mxPoint x="802.3762376237623" y="58.99143468950749" as="targetPoint" />
            <Array as="points">
              <mxPoint x="751" y="60" />
            </Array>
          </mxGeometry>
        </mxCell>
        <mxCell id="1dXbr0KGEEn8-QISHsFf-26" style="edgeStyle=orthogonalEdgeStyle;rounded=0;orthogonalLoop=1;jettySize=auto;html=1;curved=0;entryX=0;entryY=0.5;entryDx=0;entryDy=0;entryPerimeter=0;fillColor=#fa6800;strokeColor=#FFFFFF;strokeWidth=4;" edge="1" parent="1dXbr0KGEEn8-QISHsFf-4">
          <mxGeometry relative="1" as="geometry">
            <mxPoint x="180" y="84" as="sourcePoint" />
            <mxPoint x="246" y="84.48" as="targetPoint" />
          </mxGeometry>
        </mxCell>
        <mxCell id="1dXbr0KGEEn8-QISHsFf-30" value="&lt;font style=&quot;font-size: 16px;&quot; color=&quot;#ffffff&quot;&gt;&lt;b&gt;Input&lt;/b&gt;&lt;/font&gt;" style="text;html=1;align=center;verticalAlign=middle;resizable=0;points=[];autosize=1;strokeColor=none;fillColor=none;" vertex="1" parent="1dXbr0KGEEn8-QISHsFf-4">
          <mxGeometry x="130" y="70" width="60" height="30" as="geometry" />
        </mxCell>
        <mxCell id="1dXbr0KGEEn8-QISHsFf-33" value="&lt;font style=&quot;font-size: 16px;&quot; color=&quot;#ffffff&quot;&gt;&lt;b&gt;Output&lt;/b&gt;&lt;/font&gt;" style="text;html=1;align=center;verticalAlign=middle;resizable=0;points=[];autosize=1;strokeColor=none;fillColor=none;" vertex="1" parent="1dXbr0KGEEn8-QISHsFf-4">
          <mxGeometry x="1040" y="70" width="80" height="30" as="geometry" />
        </mxCell>
        <mxCell id="1dXbr0KGEEn8-QISHsFf-23" value="" style="group" vertex="1" connectable="0" parent="1">
          <mxGeometry x="220" y="470" width="142.57425742574256" height="652.933618843683" as="geometry" />
        </mxCell>
        <mxCell id="G0WD6zUPppNHZx1Gu2Fa-27" style="edgeStyle=orthogonalEdgeStyle;rounded=0;orthogonalLoop=1;jettySize=auto;html=1;exitX=0.5;exitY=1;exitDx=0;exitDy=0;entryX=0.5;entryY=0;entryDx=0;entryDy=0;strokeColor=#FFFFFF;" parent="1dXbr0KGEEn8-QISHsFf-23" source="G0WD6zUPppNHZx1Gu2Fa-22" target="G0WD6zUPppNHZx1Gu2Fa-23" edge="1">
          <mxGeometry relative="1" as="geometry" />
        </mxCell>
        <mxCell id="G0WD6zUPppNHZx1Gu2Fa-22" value="7x7 Convolution" style="rounded=1;whiteSpace=wrap;html=1;fillColor=#60a917;strokeColor=#2D7600;fontColor=#ffffff;" parent="1dXbr0KGEEn8-QISHsFf-23" vertex="1">
          <mxGeometry y="49.78586723768737" width="142.57425742574256" height="88.26552462526766" as="geometry" />
        </mxCell>
        <mxCell id="G0WD6zUPppNHZx1Gu2Fa-28" style="edgeStyle=orthogonalEdgeStyle;rounded=0;orthogonalLoop=1;jettySize=auto;html=1;exitX=0.5;exitY=1;exitDx=0;exitDy=0;entryX=0.5;entryY=0;entryDx=0;entryDy=0;strokeColor=#FFFFFF;" parent="1dXbr0KGEEn8-QISHsFf-23" source="G0WD6zUPppNHZx1Gu2Fa-23" target="G0WD6zUPppNHZx1Gu2Fa-24" edge="1">
          <mxGeometry relative="1" as="geometry" />
        </mxCell>
        <mxCell id="G0WD6zUPppNHZx1Gu2Fa-23" value="Batch Norm" style="rounded=1;whiteSpace=wrap;html=1;fillColor=#60a917;strokeColor=#2D7600;fontColor=#ffffff;" parent="1dXbr0KGEEn8-QISHsFf-23" vertex="1">
          <mxGeometry y="152.76231263383298" width="142.57425742574256" height="88.26552462526766" as="geometry" />
        </mxCell>
        <mxCell id="G0WD6zUPppNHZx1Gu2Fa-29" style="edgeStyle=orthogonalEdgeStyle;rounded=0;orthogonalLoop=1;jettySize=auto;html=1;exitX=0.5;exitY=1;exitDx=0;exitDy=0;entryX=0.5;entryY=0;entryDx=0;entryDy=0;strokeColor=#FFFFFF;" parent="1dXbr0KGEEn8-QISHsFf-23" source="G0WD6zUPppNHZx1Gu2Fa-24" target="G0WD6zUPppNHZx1Gu2Fa-25" edge="1">
          <mxGeometry relative="1" as="geometry" />
        </mxCell>
        <mxCell id="G0WD6zUPppNHZx1Gu2Fa-24" value="ReLU" style="rounded=1;whiteSpace=wrap;html=1;fillColor=#60a917;strokeColor=#2D7600;fontColor=#ffffff;" parent="1dXbr0KGEEn8-QISHsFf-23" vertex="1">
          <mxGeometry y="255.7387580299786" width="142.57425742574256" height="88.26552462526766" as="geometry" />
        </mxCell>
        <mxCell id="G0WD6zUPppNHZx1Gu2Fa-32" style="edgeStyle=orthogonalEdgeStyle;rounded=0;orthogonalLoop=1;jettySize=auto;html=1;exitX=0.5;exitY=1;exitDx=0;exitDy=0;entryX=0.5;entryY=0;entryDx=0;entryDy=0;strokeColor=#FFFFFF;" parent="1dXbr0KGEEn8-QISHsFf-23" source="G0WD6zUPppNHZx1Gu2Fa-25" target="G0WD6zUPppNHZx1Gu2Fa-30" edge="1">
          <mxGeometry relative="1" as="geometry" />
        </mxCell>
        <mxCell id="G0WD6zUPppNHZx1Gu2Fa-25" value="1x1 Convolution" style="rounded=1;whiteSpace=wrap;html=1;fillColor=#60a917;strokeColor=#2D7600;fontColor=#ffffff;" parent="1dXbr0KGEEn8-QISHsFf-23" vertex="1">
          <mxGeometry y="358.7152034261242" width="142.57425742574256" height="88.26552462526766" as="geometry" />
        </mxCell>
        <mxCell id="G0WD6zUPppNHZx1Gu2Fa-26" style="edgeStyle=orthogonalEdgeStyle;rounded=0;orthogonalLoop=1;jettySize=auto;html=1;exitX=0.5;exitY=1;exitDx=0;exitDy=0;" parent="1dXbr0KGEEn8-QISHsFf-23" source="G0WD6zUPppNHZx1Gu2Fa-25" target="G0WD6zUPppNHZx1Gu2Fa-25" edge="1">
          <mxGeometry relative="1" as="geometry" />
        </mxCell>
        <mxCell id="G0WD6zUPppNHZx1Gu2Fa-33" style="edgeStyle=orthogonalEdgeStyle;rounded=0;orthogonalLoop=1;jettySize=auto;html=1;exitX=0.5;exitY=1;exitDx=0;exitDy=0;entryX=0.5;entryY=0;entryDx=0;entryDy=0;strokeColor=#FFFFFF;" parent="1dXbr0KGEEn8-QISHsFf-23" source="G0WD6zUPppNHZx1Gu2Fa-30" target="G0WD6zUPppNHZx1Gu2Fa-31" edge="1">
          <mxGeometry relative="1" as="geometry" />
        </mxCell>
        <mxCell id="G0WD6zUPppNHZx1Gu2Fa-30" value="Batch Norm" style="rounded=1;whiteSpace=wrap;html=1;fillColor=#60a917;strokeColor=#2D7600;fontColor=#ffffff;" parent="1dXbr0KGEEn8-QISHsFf-23" vertex="1">
          <mxGeometry y="461.6916488222698" width="142.57425742574256" height="88.26552462526766" as="geometry" />
        </mxCell>
        <mxCell id="G0WD6zUPppNHZx1Gu2Fa-31" value="GELU" style="rounded=1;whiteSpace=wrap;html=1;fillColor=#60a917;fontColor=#ffffff;strokeColor=#2D7600;" parent="1dXbr0KGEEn8-QISHsFf-23" vertex="1">
          <mxGeometry y="564.6680942184154" width="142.57425742574256" height="88.26552462526766" as="geometry" />
        </mxCell>
        <mxCell id="0nggnoeJpOFIupsntiaY-3" value="&lt;font style=&quot;font-size: 16px;&quot; color=&quot;#ffffff&quot;&gt;&lt;b&gt;ConvBlock&lt;/b&gt;&lt;/font&gt;" style="text;html=1;align=center;verticalAlign=middle;resizable=0;points=[];autosize=1;strokeColor=none;fillColor=none;fontSize=16;" parent="1dXbr0KGEEn8-QISHsFf-23" vertex="1">
          <mxGeometry x="16.29059405940594" width="110" height="30" as="geometry" />
        </mxCell>
        <mxCell id="1dXbr0KGEEn8-QISHsFf-25" value="" style="group" vertex="1" connectable="0" parent="1">
          <mxGeometry x="1200" y="10" width="142.56999999999994" height="370" as="geometry" />
        </mxCell>
        <mxCell id="1dXbr0KGEEn8-QISHsFf-8" value="ConvBlock" style="rounded=1;whiteSpace=wrap;html=1;fillColor=#FF4400;fontColor=#ffffff;strokeColor=#006EAF;" vertex="1" parent="1dXbr0KGEEn8-QISHsFf-25">
          <mxGeometry y="40" width="142.57" height="50" as="geometry" />
        </mxCell>
        <mxCell id="1dXbr0KGEEn8-QISHsFf-10" value="Skip Connection" style="rounded=1;whiteSpace=wrap;html=1;fillColor=#8FBDFF;fontColor=#ffffff;strokeColor=#006EAF;" vertex="1" parent="1dXbr0KGEEn8-QISHsFf-25">
          <mxGeometry y="110" width="142.57" height="50" as="geometry" />
        </mxCell>
        <mxCell id="1dXbr0KGEEn8-QISHsFf-13" value="DownSample" style="rounded=1;whiteSpace=wrap;html=1;fillColor=#FF8000;fontColor=#ffffff;strokeColor=#006EAF;" vertex="1" parent="1dXbr0KGEEn8-QISHsFf-25">
          <mxGeometry y="180" width="142.57" height="50" as="geometry" />
        </mxCell>
        <mxCell id="1dXbr0KGEEn8-QISHsFf-14" value="UpSample" style="rounded=1;whiteSpace=wrap;html=1;fillColor=#FF33FF;fontColor=#ffffff;strokeColor=#006EAF;" vertex="1" parent="1dXbr0KGEEn8-QISHsFf-25">
          <mxGeometry y="250" width="142.57" height="50" as="geometry" />
        </mxCell>
        <mxCell id="1dXbr0KGEEn8-QISHsFf-17" value="Bottleneck" style="rounded=1;whiteSpace=wrap;html=1;fillColor=#CC99FF;fontColor=#ffffff;strokeColor=#006EAF;" vertex="1" parent="1dXbr0KGEEn8-QISHsFf-25">
          <mxGeometry y="320" width="142.57" height="50" as="geometry" />
        </mxCell>
        <mxCell id="1dXbr0KGEEn8-QISHsFf-22" value="&lt;font style=&quot;font-size: 16px;&quot; color=&quot;#ffffff&quot;&gt;&lt;b&gt;Key&lt;/b&gt;&lt;/font&gt;" style="text;html=1;align=center;verticalAlign=middle;resizable=0;points=[];autosize=1;" vertex="1" parent="1dXbr0KGEEn8-QISHsFf-25">
          <mxGeometry x="5" width="50" height="30" as="geometry" />
        </mxCell>
      </root>
    </mxGraphModel>
  </diagram>
</mxfile>
